<svg width="150" height="150" viewBox="0 0 150 150" fill="none" xmlns="http://www.w3.org/2000/svg">
<g id="hugeicons:ai-magic">
<path id="Vector" d="M62.5 43.75L59.275 52.4625C55.05 63.8875 52.9375 69.6 48.7687 73.7688C44.6 77.9375 38.8875 80.05 27.4625 84.275L18.75 87.5L27.4625 90.725C38.8875 94.95 44.6 97.0688 48.7687 101.231C52.9375 105.394 55.05 111.113 59.275 122.538L62.5 131.25L65.725 122.538C69.95 111.113 72.0687 105.4 76.2312 101.231C80.3937 97.0625 86.1125 94.95 97.5375 90.725L106.25 87.5L97.5375 84.275C86.1125 80.05 80.4 77.9375 76.2312 73.7688C72.0625 69.6 69.95 63.8875 65.725 52.4625L62.5 43.75ZM112.5 18.75L111.119 22.4812C109.306 27.3812 108.4 29.8313 106.619 31.6125C104.831 33.4 102.381 34.3062 97.4812 36.1125L93.75 37.5L97.4875 38.8813C102.381 40.6938 104.831 41.6 106.613 43.3813C108.4 45.1688 109.306 47.6187 111.113 52.5187L112.5 56.25L113.881 52.5187C115.694 47.6187 116.6 45.1687 118.381 43.3875C120.169 41.6 122.619 40.6938 127.519 38.8875L131.25 37.5L127.513 36.1187C122.619 34.3062 120.169 33.4 118.387 31.6187C116.6 29.8312 115.694 27.3812 113.887 22.4812L112.5 18.75Z" stroke="#408CC5" stroke-width="5" stroke-linecap="round" stroke-linejoin="round"/>
</g>
</svg>
