<svg width="42" height="35" viewBox="0 0 42 35" fill="none" xmlns="http://www.w3.org/2000/svg">
<g id="Logo 1" clip-path="url(#clip0_583_662)">
<path id="Vector" d="M41.4385 0.5H0.5V34.424H41.4385V0.5Z" fill="#131D23"/>
<path id="Vector_2" d="M15.786 5.02216H19.6667V22.1C19.6597 23.6655 19.3643 25.0137 18.7808 26.1442C18.1973 27.267 17.3818 28.1328 16.3344 28.7414C15.2939 29.3424 14.0812 29.6428 12.6962 29.6428C11.4308 29.6428 10.2919 29.3898 9.27958 28.8838C8.27427 28.3699 7.47633 27.6109 6.8858 26.6068C6.29527 25.6027 6 24.3534 6 22.8591H9.8912C9.89823 23.5153 10.0248 24.0806 10.2708 24.5551C10.5239 25.0294 10.8719 25.3932 11.3148 25.6461C11.7577 25.8992 12.2674 26.0256 12.8439 26.0256C13.4696 26.0256 14.0003 25.8794 14.4362 25.5868C14.8721 25.2863 15.2025 24.8437 15.4275 24.2586C15.6595 23.6734 15.779 22.9541 15.786 22.1V5.02216Z" fill="white"/>
<path id="Vector_3" d="M33.7836 13.0485C33.6538 12.4166 33.4746 11.851 33.2463 11.3517C33.0229 10.8447 32.7529 10.4117 32.4363 10.0528C32.1248 9.69397 31.7664 9.42483 31.3614 9.2454C30.9564 9.05817 30.5151 8.96456 30.0374 8.96456C29.1808 8.96456 28.4176 9.28831 27.7478 9.93582C27.0779 10.5833 26.9676 10.6332 26.5834 11.8892C26.4168 13.3966 26.4168 15.6073 26.4168 17.4015C26.4168 19.2116 26.5834 20.5148 26.5834 21.8547C26.9624 23.1107 27.2418 23.9628 27.9168 24.6182C28.5918 25.2657 29.2068 25.7918 30.0998 25.7918C30.9098 25.7918 31.6108 25.5578 32.2026 25.0897C32.7998 24.6216 33.2593 23.9585 33.5811 23.1005C33.9031 22.2344 34.0639 21.2202 34.0639 20.0579L34.7183 20.2099H30.3879V16.8165H36.8599V19.6951C36.8599 21.7468 36.5691 23.5217 35.9876 25.0195C35.4061 26.5174 34.6066 27.6719 33.5889 28.4832C32.5713 29.2868 31.4031 29.6886 30.0843 29.6886C28.6149 29.6886 27.3246 29.1931 26.2136 28.2025C25.1076 27.2039 24.2431 25.788 23.6201 23.9546C23.0023 22.1136 23.2384 20.1113 23.2384 17.5837C23.2384 15.649 23.4168 13.3193 23.4168 11.8892C23.7984 10.137 24.1211 9.40532 24.7804 8.34435C25.4399 7.2756 26.2136 6.46427 27.1014 5.91037C27.9893 5.34868 28.9549 5.06784 29.9986 5.06784C30.8813 5.06784 31.7041 5.26288 32.4674 5.65294C33.2306 6.0352 33.9083 6.58128 34.5001 7.29119C35.0973 8.0011 35.5879 8.84363 35.9721 9.8188C36.3563 10.7939 36.6081 11.8705 36.7276 13.0485H33.7836Z" fill="white"/>
<path id="Vector_4" d="M32.7058 4.48126C32.2481 4.23195 32.3856 3.49839 32.9049 3.46372L38.9134 3.06259C39.2708 3.03873 39.5364 3.38893 39.4189 3.72883L37.8183 8.35903C37.6718 8.78291 37.0801 8.8188 36.8586 8.42921C35.8563 6.6668 34.7079 5.572 32.7058 4.48126Z" fill="#50AFF6"/>
<path id="Vector_5" d="M20.834 25.1185C20.9923 24.6747 21.6348 24.6268 21.8465 25.0475C23.0115 27.3623 24.199 28.753 26.1948 30.1771C26.6055 30.4702 26.4088 31.1502 25.905 31.1502H16.9186C16.3929 31.1502 16.2097 30.4101 16.6571 30.1328C18.9395 28.718 20.0453 27.331 20.834 25.1185Z" fill="#50AFF6"/>
<path id="Vector_6" d="M9.5 5.02216H6.5C6.22386 5.02216 6 5.24712 6 5.52462V20.9335C6 21.211 6.22386 21.4359 6.5 21.4359H9.5C9.77614 21.4359 10 21.211 10 20.9335V5.52462C10 5.24712 9.77614 5.02216 9.5 5.02216Z" fill="#50AFF6"/>
</g>
<defs>
<clipPath id="clip0_583_662">
<rect width="41" height="34" fill="white" transform="translate(0.5 0.5)"/>
</clipPath>
</defs>
</svg>
