<svg width="96" height="96" viewBox="0 0 96 96" fill="none" xmlns="http://www.w3.org/2000/svg">
<g id="mingcute:ai-line">
<g id="Group">
<path id="Vector" d="M34.3037 20.7412C37.4752 12.5103 48.9222 12.2725 52.6133 19.9844L52.7861 20.3643L52.8047 20.4082L52.8223 20.4541L53.0625 21.0938L53.082 21.1484L56.3096 30.5889H56.3105L56.4365 30.9424C57.0898 32.699 58.0896 34.3081 59.3779 35.6729C60.7482 37.1243 62.4132 38.2652 64.2607 39.0205L65.0713 39.3232L74.4756 42.5352H74.4766L74.8809 42.6826C83.2435 45.9054 83.3548 57.6717 75.2617 61.1641L75.2178 61.1836L75.1719 61.2002L74.5322 61.4404L74.5039 61.4512L74.4766 61.46L65.0371 64.6885H65.0352C63.1403 65.3354 61.4064 66.3817 59.9502 67.7559C58.4999 69.1244 57.3582 70.7867 56.6025 72.6318L56.3105 73.4102L53.0859 82.8545C50.0924 91.6148 38.005 91.8636 34.4609 83.6396L34.4463 83.6055L34.4326 83.5703L34.1846 82.9307L34.1699 82.8926L34.1572 82.8545L30.9326 73.4141C30.2858 71.5193 29.2402 69.7853 27.8662 68.3291C26.4958 66.8768 24.8306 65.7332 22.9824 64.9775L22.1709 64.6748L12.7715 61.4648C4.00679 58.4715 3.75751 46.3827 11.9863 42.8389L12.0205 42.8242L12.0547 42.8115L12.6953 42.5635L12.7324 42.5488L12.7715 42.5352L22.2109 39.3115L22.5645 39.1855C24.3209 38.5323 25.9294 37.5322 27.2939 36.2441C28.7439 34.8754 29.8843 33.2123 30.6396 31.3672L30.9365 30.5781L34.1572 21.1455L34.3037 20.7412ZM42.29 34.4619C41.0697 38.0382 39.0845 41.3053 36.4727 44.0361C33.8608 46.7669 30.6854 48.8961 27.167 50.2744L27.1445 50.2832L27.1221 50.291L26.1221 50.6553L26.1025 50.6621L26.084 50.6689L22.1855 52L26.084 53.3311H26.083C29.6593 54.5514 32.9274 56.5366 35.6582 59.1484C38.2183 61.597 40.2494 64.5413 41.6289 67.7988L41.8955 68.4541L41.9043 68.4775L41.9131 68.5L42.2773 69.5L42.2842 69.5186L42.29 69.5381L43.6211 73.4355L44.9531 69.5381L45.1904 68.8711C46.4235 65.5555 48.3211 62.5239 50.7695 59.9639C53.3814 57.233 56.5577 55.1039 60.0762 53.7256L60.1016 53.7158L60.1279 53.7061L61.1279 53.3467L61.1436 53.3408L61.1582 53.3359L65.0605 52.001L61.1592 50.6689C57.583 49.4486 54.3157 47.4633 51.585 44.8516C48.8543 42.2398 46.726 39.0641 45.3477 35.5459L45.3369 35.5195L45.3281 35.4932L44.9678 34.4932L44.9619 34.4785L44.957 34.4629L43.6221 30.5605L42.29 34.4619Z" stroke="#408CC5" stroke-width="4"/>
</g>
</g>
</svg>
